<svg viewBox="0 0 38 33" preserveAspectRatio="xMidYMid" xmlns="http://www.w3.org/2000/svg">
  <g transform="scale(0.34) translate(11.4, 19)">
    <path d="M35.7 11.3h4.4c.5 0 .9-.4.9-.9s-.4-.9-.9-.9h-4.4zm0 4.2h4.5c.6 0 1-.4 1-1s-.4-1-1-1h-4.5zm7.1-3.2c.6.6 1 1.4 1 2.3 0 1.8-1.4 3.2-3.2 3.2h-7.3V7.3h7.2c1.7 0 3.1 1.4 3.1 3.1-.1.7-.4 1.4-.8 1.9zm1.7 18h-2.7l-.8-1.8h-5.9l-.8 1.8h-2.7l5.2-10.5h2.4zM38 22.5l-1.8 3.8h3.6zm3.6 10.1h3l-5.3 6.8v3.7h-2.5v-3.7l-5.3-6.8h3l3.6 4.8zm13.9 0v2.3h-7v1.8h6.8V39h-6.8v2h7v2.3H46V32.6zm7.7 6.5h-1.9v4h-2.5V32.6h6.4c1.8 0 3.2 1.5 3.2 3.3 0 1.5-1 2.7-2.3 3.1l3.1 4.1h-3zm1.8-4.3h-3.6v2H65c.6 0 1-.5 1-1s-.5-1-1-1zm-32.4 8.3h-2.7l-.8-1.8h-5.9l-.8 1.8h-2.7L25 32.6h2.4zm-6.5-7.8l-1.8 3.8H28zm-15.9 1.3h4.4c.5 0 .9-.4.9-.9s-.4-.9-.9-.9h-4.4zm0 4.2h4.5c.6 0 1-.4 1-1s-.4-1-1-1h-4.5zm7.1-3.2c.6.6 1 1.4 1 2.3 0 1.8-1.4 3.2-3.2 3.2H7.7V32.6h7.2c1.7 0 3.1 1.4 3.1 3.1 0 .7-.3 1.4-.7 1.9zm25.5 7.7v2.3h-7v1.8h6.8v2.3h-6.8v2h7V56h-9.5V45.3zM41 61.6c0-.6-.4-1-1-1h-4.3v2H40c.6 0 1-.4 1-1zm-7.8 7.3V58.4h7c1.8 0 3.2 1.5 3.2 3.3 0 1.4-.8 2.5-2 3l3.2 4.2h-3l-3-4h-2.9v4z" fill="#10384f"/>
    <path d="M75.9 35.6C74.7 15.8 58.2 0 38 0S1.3 15.8.1 35.6c0 .8.1 1.6.2 2.4.8 6.6 3.3 12.7 7.1 17.8 6.9 9.4 18 15.5 30.6 15.5-17.6 0-32-13.7-33.2-30.9-.1-.8-.1-1.6-.1-2.4 0-.8 0-1.6.1-2.4C6 18.4 20.4 4.7 38 4.7c12.6 0 23.7 6.1 30.6 15.5 3.8 5.1 6.3 11.2 7.1 17.8.1.8.2 1.6.2 2.3 0-.8.1-1.6.1-2.4 0-.7 0-1.5-.1-2.3" fill="#89d329"/>
    <path d="M.1 40.4C1.3 60.2 17.8 76 38 76s36.7-15.8 37.9-35.6c0-.8-.1-1.6-.2-2.4-.8-6.6-3.3-12.7-7.1-17.8-6.9-9.4-18-15.5-30.6-15.5 17.6 0 32 13.7 33.2 30.9.1.8.1 1.6.1 2.4 0 .8 0 1.6-.1 2.4C70 57.7 55.6 71.3 38 71.3c-12.6 0-23.7-6.1-30.6-15.5C3.6 50.7 1.1 44.6.3 38c-.1-.8-.2-1.6-.2-2.3 0 .8-.1 1.6-.1 2.4 0 .7 0 1.5.1 2.3" fill="#00bcff"/>
  </g>
</svg>