<svg width="38" height="33" viewBox="0 0 38 33" fill="none" xmlns="http://www.w3.org/2000/svg">
<path d="M37.7824 14.6328C37.7543 14.4715 37.7236 14.3133 37.6908 14.1572L34.286 17.5422L37.4698 21.5616C37.5072 21.3274 37.8255 19.614 37.8557 19.3818C38.0606 17.8028 38.057 16.201 37.7824 14.6328ZM34.0223 7.82759C31.5796 5.60898 28.6402 4.24504 25.5672 3.1484C24.8714 2.90023 22.6835 2.22601 21.9803 2.00679L30.3668 12.5947L31.5063 11.4618L31.6597 11.3088L31.8131 11.4618L33.3488 12.9881L33.5023 13.1407L33.3488 13.2932L31.9905 14.6437L32.6629 15.4927L36.7719 11.4076C36.1208 10.0622 35.2122 8.90768 34.0223 7.82759ZM34.286 17.5422L28.9299 22.8677L28.7765 23.0202L28.6225 22.8677L27.0873 21.3409L26.9339 21.1883L32.6629 15.4927L31.9905 14.6437L23.7184 22.8677L23.565 23.0202L23.5572 23.0125L23.5494 23.0202L23.3959 22.8677L17.707 17.2118L17.5536 17.0588L19.2422 15.38L19.3956 15.2269L19.5496 15.38L23.5572 19.3642L30.3668 12.5947L21.9803 2.00679C18.7892 1.10663 15.5295 0.491868 12.21 0.1408C9.16606 -0.180797 6.18715 0.00585321 3.31382 1.14747C1.17013 1.99955 -0.0405667 3.81021 0.00103813 6.09655C0.025481 7.43154 0.392123 8.68432 0.898662 9.90401C2.03915 12.6505 3.73247 15.0682 5.5974 17.3623C8.90447 21.4288 12.6203 25.1008 16.7335 28.3783C18.7424 29.979 20.8294 31.4505 23.2883 32.3036C27.9376 33.9173 31.5047 32.6604 34.0494 29.219C35.829 26.8127 36.8884 24.1577 37.4698 21.5616L34.286 17.5422Z" fill="#0085CD"/>
</svg>
